<?xml version="1.0" encoding="utf-8"?>
<!-- Generator: Adobe Illustrator 16.0.0, SVG Export Plug-In . SVG Version: 6.00 Build 0)  -->
<!DOCTYPE svg PUBLIC "-//W3C//DTD SVG 1.1//EN" "http://www.w3.org/Graphics/SVG/1.1/DTD/svg11.dtd">
<svg version="1.1" id="Layer_1" xmlns="http://www.w3.org/2000/svg" xmlns:xlink="http://www.w3.org/1999/xlink" x="0px" y="0px"
	 width="386.75px" height="212.054px" viewBox="0 0 386.75 212.054" enable-background="new 0 0 386.75 212.054"
	 xml:space="preserve">
<g transform="matrix( 1, 0, 0, 1, 313.95,1045.25) ">
	<g>
		<g id="Layer0_39_FILL">
			<path fill="#3C4142" d="M-278.388-927.091c-9.836,1.08-18.25,5.486-25.244,13.218c-6.879,7.733-10.319,16.516-10.319,26.353
				c0,9.836,3.439,17.823,10.319,23.964c6.993,6.14,15.407,8.67,25.244,7.59c5.458-0.682,10.461-2.331,15.009-4.946
				c2.331,3.014,5.002,5.855,8.017,8.528c13.247,11.769,29.251,16.602,48.013,14.498c10.29-1.194,19.756-4.292,28.398-9.296
				c15.123,7.164,32.094,9.666,50.913,7.504c13.588-1.534,26.153-5.23,37.694-11.086c16.146,13.872,35.506,19.529,58.076,16.971
				c22.344-2.501,41.504-12.366,57.48-29.592c1.193-0.057,2.416-0.143,3.666-0.256c12.111-1.422,22.457-6.908,31.043-16.459
				c8.585-9.553,12.877-20.411,12.877-32.579c0-12.052-4.292-21.888-12.877-29.507c-3.752-3.296-7.846-5.77-12.28-7.418
				c-3.753-12.679-10.803-23.594-21.149-32.749c-16.203-14.384-35.79-20.268-58.76-17.653c-1.479,0.171-2.956,0.371-4.435,0.597
				c-4.719-8.528-11.03-16.288-18.933-23.282c-19.955-17.738-44.09-25.015-72.403-21.832c-28.2,3.241-52.335,16.005-72.404,38.292
				c-10.006,11.143-17.511,23.083-22.514,35.818c-12.167,4.038-22.969,11.342-32.407,21.917
				c-6.084,6.767-10.746,13.902-13.986,21.407C-272.248-927.432-275.261-927.432-278.388-927.091z"/>
		</g>
	</g>
</g>
</svg>
