<?xml version="1.0" encoding="utf-8"?>
<!-- Generator: Adobe Illustrator 16.0.0, SVG Export Plug-In . SVG Version: 6.00 Build 0)  -->
<!DOCTYPE svg PUBLIC "-//W3C//DTD SVG 1.1//EN" "http://www.w3.org/Graphics/SVG/1.1/DTD/svg11.dtd">
<svg version="1.1" id="Layer_1" xmlns="http://www.w3.org/2000/svg" xmlns:xlink="http://www.w3.org/1999/xlink" x="0px" y="0px"
	 width="371.75px" height="250.461px" viewBox="0 0 371.75 250.461" enable-background="new 0 0 371.75 250.461"
	 xml:space="preserve">
<g transform="matrix( 1, 0, 0, 1, 313.95,1045.25) ">
	<g>
		<g id="Layer0_43_FILL">
			<path fill="#3C4142" d="M-58.365-1009.583c-23.845-23.778-52.583-35.667-86.213-35.667c-33.697,0-62.436,11.89-86.213,35.667
				c-16.224,16.29-26.932,34.814-32.121,55.571c-13.137,1.314-24.567,6.799-34.288,16.454c-11.167,11.233-16.75,24.766-16.75,40.596
				s5.583,29.327,16.75,40.494c11.232,11.168,24.764,16.75,40.594,16.75c7.16,0,13.859-1.148,20.099-3.448
				c1.84,2.036,3.745,4.04,5.715,6.01c23.778,23.843,52.516,35.767,86.213,35.767c22.858,0,43.45-5.484,61.776-16.455
				c15.963,15.37,35.143,23.057,57.542,23.057c22.925,0,42.499-8.113,58.723-24.336c16.225-16.225,24.337-35.8,24.337-58.725
				c0-22.924-8.112-42.499-24.337-58.724c-16.224-16.224-35.798-24.336-58.723-24.336c-0.985,0-1.971,0-2.956,0
				C-33.93-978.907-43.98-995.132-58.365-1009.583z"/>
		</g>
	</g>
</g>
</svg>
