<?xml version="1.0" encoding="utf-8"?>
<!-- Generator: Adobe Illustrator 16.0.0, SVG Export Plug-In . SVG Version: 6.00 Build 0)  -->
<!DOCTYPE svg PUBLIC "-//W3C//DTD SVG 1.1//EN" "http://www.w3.org/Graphics/SVG/1.1/DTD/svg11.dtd">
<svg version="1.1" id="Layer_1" xmlns="http://www.w3.org/2000/svg" xmlns:xlink="http://www.w3.org/1999/xlink" x="0px" y="0px"
	 width="389.629px" height="219.396px" viewBox="0 0 389.629 219.396" enable-background="new 0 0 389.629 219.396"
	 xml:space="preserve">
<g transform="matrix( 1, 0, 0, 1, 313.95,1045.25) ">
	<g>
		<g id="Layer0_38_FILL">
			<path fill="#3C4142" d="M-302.707-931.571c-7.495,7.112-11.243,15.946-11.243,26.505c0,10.561,3.748,19.777,11.243,27.654
				c6.729,7.113,14.744,11.217,24.044,12.31c2.791,3.94,5.909,7.769,9.355,11.488c16.575,17.288,36.518,26.506,59.822,27.655
				c18.929,0.876,35.615-3.72,50.058-13.787c10.832,7.169,23.032,11.052,36.6,11.655c15.154,0.766,28.613-2.682,40.374-10.341
				c9.903,5.196,20.79,8.097,32.661,8.698c19.367,0.93,36.107-4.566,50.221-16.495c8.426,8.098,18.465,12.42,30.117,12.967
				c12.42,0.655,23.061-3.229,31.923-11.653c8.808-8.425,13.212-18.874,13.212-31.349c0-12.418-4.404-23.276-13.212-32.577
				c-8.862-9.245-19.503-14.143-31.923-14.689c-2.406-0.165-4.705-0.136-6.892,0.082c-3.394-12.363-9.931-23.632-19.614-33.809
				c-14.825-15.536-32.77-23.825-53.832-24.865c-11.215-0.547-21.555,1.068-31.02,4.842c-2.68-15.755-9.956-29.843-21.828-42.262
				c-15.263-16.029-33.7-24.563-55.31-25.604c-21.609-1.04-40.073,5.69-55.391,20.187c-9.574,9.245-16.166,19.859-19.777,31.839
				c-13.403,3.119-25.466,9.739-36.188,19.86c-10.286,9.847-17.343,21.144-21.173,33.891
				C-294.911-937.672-298.987-935.073-302.707-931.571z"/>
		</g>
	</g>
</g>
</svg>
