<?xml version="1.0" encoding="utf-8"?>
<!-- Generator: Adobe Illustrator 16.0.0, SVG Export Plug-In . SVG Version: 6.00 Build 0)  -->
<!DOCTYPE svg PUBLIC "-//W3C//DTD SVG 1.1//EN" "http://www.w3.org/Graphics/SVG/1.1/DTD/svg11.dtd">
<svg version="1.1" id="Layer_1" xmlns="http://www.w3.org/2000/svg" xmlns:xlink="http://www.w3.org/1999/xlink" x="0px" y="0px"
	 width="392.425px" height="246.661px" viewBox="0 0 392.425 246.661" enable-background="new 0 0 392.425 246.661"
	 xml:space="preserve">
<g transform="matrix( 1, 0, 0, 1, 313.95,1045.25) ">
	<g>
		<g id="Layer0_44_FILL">
			<path fill="#3C4142" d="M-253.668-970.936c-16.667,0.001-30.866,5.865-42.592,17.591c-11.793,11.793-17.689,26.024-17.689,42.69
				c0,16.604,5.896,30.768,17.689,42.494c11.727,11.793,25.925,17.689,42.592,17.689c7.577,0,14.659-1.219,21.247-3.656
				c3.294,4.216,6.917,8.302,10.871,12.254c23.257,23.257,51.322,34.885,84.197,34.885c23.19,0,43.976-5.766,62.358-17.295
				c17.458,17.131,38.475,25.694,63.049,25.694c24.969,0,46.281-8.829,63.938-26.484s26.484-38.968,26.484-63.938
				c0-24.902-8.828-46.182-26.484-63.839c-17.656-17.656-38.969-26.484-63.938-26.484c-6.062,0-11.925,0.528-17.591,1.582
				c-5.732-11.793-13.571-22.664-23.521-32.611c-23.256-23.257-51.354-34.885-84.295-34.885c-32.875,0-60.94,11.628-84.197,34.885
				c-11.99,11.924-20.852,25.134-26.583,39.627C-249.979-970.87-251.823-970.935-253.668-970.936z"/>
		</g>
	</g>
</g>
</svg>
