<?xml version="1.0" encoding="utf-8"?>
<!-- Generator: Adobe Illustrator 16.0.0, SVG Export Plug-In . SVG Version: 6.00 Build 0)  -->
<!DOCTYPE svg PUBLIC "-//W3C//DTD SVG 1.1//EN" "http://www.w3.org/Graphics/SVG/1.1/DTD/svg11.dtd">
<svg version="1.1" id="Layer_1" xmlns="http://www.w3.org/2000/svg" xmlns:xlink="http://www.w3.org/1999/xlink" x="0px" y="0px"
	 width="390.631px" height="248.934px" viewBox="0 0 390.631 248.934" enable-background="new 0 0 390.631 248.934"
	 xml:space="preserve">
<path stroke="#000000" stroke-miterlimit="10" d="M65.523,62.29c6.86-64.575,83.788-66.578,132.909-58.358
	c21.616,3.617,39.752,7.521,35.16,32.104c-1.034,5.537-2.239,12.353-8.726,13.105c-1.252-14.718,3.56-15.999,19.443-16.508
	c31.519-1.011,60.898,13.017,87.358,28.62c25.629,15.113,49.186,31.348,56.454,61.749c8.908,37.262-12.558,68.139-50.217,75.894
	c-6.564,1.352-58.76,2.413-52.222-12.113c17.246,66.334-93.447,64.846-130.33,59.164c-26.362-4.061-59.41-16.681-62.361-47.294
	c-0.917-9.517,0.299-25.832,9.963-31.07c1.081,16.716-47.391,2.748-52.405,0.841c-38.104-14.494-61.379-47.659-44.43-87.017
	c7.913-18.376,48.496-43.285,66.542-25.239"/>
</svg>
